<svg width="26" height="26" viewBox="0 0 26 26" fill="none" xmlns="http://www.w3.org/2000/svg">
<path d="M18.157 2.13574H7.47643C4.52706 2.13574 2.13612 4.52668 2.13612 7.47605V18.1567C2.13612 21.106 4.52706 23.497 7.47643 23.497H18.157C21.1064 23.497 23.4973 21.106 23.4973 18.1567V7.47605C23.4973 4.52668 21.1064 2.13574 18.157 2.13574Z" stroke="white" stroke-width="2.13612" stroke-linecap="round" stroke-linejoin="round"/>
<path d="M17.089 12.1436C17.2208 13.0325 17.069 13.9403 16.6551 14.738C16.2412 15.5356 15.5864 16.1824 14.7837 16.5864C13.9811 16.9904 13.0714 17.131 12.1842 16.9883C11.297 16.8455 10.4774 16.4266 9.84203 15.7912C9.20662 15.1558 8.78774 14.3362 8.64498 13.449C8.50222 12.5618 8.64284 11.6522 9.04684 10.8495C9.45085 10.0469 10.0977 9.39203 10.8953 8.97815C11.6929 8.56428 12.6007 8.41245 13.4896 8.54426C14.3963 8.67871 15.2357 9.10122 15.8839 9.74936C16.532 10.3975 16.9545 11.2369 17.089 12.1436Z" stroke="white" stroke-width="2.13612" stroke-linecap="round" stroke-linejoin="round"/>
<path d="M18.6911 6.94238H18.7019" stroke="white" stroke-width="2.13612" stroke-linecap="round" stroke-linejoin="round"/>
</svg>
